# xmcd
#
# Track frame offsets: 
#        183
#        13905
#        28515
#        42628
#        56438
#        70840
#        84040
#        98283
#        111973
#        125513
#        139930
#        155433
#        169570
#        184218
#        197790
#        212728
#        227503
#        241480
#        258018
#        272648
#        288020
#        303543
#        317310
#
# Disc length: 4429 seconds
#
# Revision: 0
# Processed by: cddbd v1.5.2PL0 Copyright (c) Steve Scherf et al.
# Submitted via: ExactAudioCopy v0.99pb5
#
DISCID=32114b17
DTITLE=Bessie Smith - St. Louis Blues
DYEAR=1900
DGENRE=Blues
TTITLE0=Sing Sing Prison Blues
TTITLE1=Follow the Deal on Down
TTITLE2=Singful Blues
TTITLE3=Woman's Trouble Blues
TTITLE4=Love Me Daddy Blues
TTITLE5=Dying Gambler's Blues
TTITLE6=The Saint Louis Blues
TTITLE7=Reckless Blues
TTITLE8=Sobbin' Hearted Blues
TTITLE9=Cold In Hand Blues
TTITLE10=You've Been A Good Ole Wagon
TTITLE11=Cake Walkin' Babies
TTITLE12=The Yellow Dog Blues (1)
TTITLE13=The Yellow Dog Blues (2)
TTITLE14=Soft Pedal Blues (1)
TTITLE15=Soft Pedal Blues (2)
TTITLE16=Dixie Flyer Blues
TTITLE17=Nashville Women (2)
TTITLE18=Nashville Women (3)
TTITLE19=Careless Love (1)
TTITLE20=Careless Love (2)
TTITLE21=J.C. Holmes Blues
TTITLE22=I Ain't Going To Play Second Fiddle
EXTD=
EXTT0=
EXTT1=
EXTT2=
EXTT3=
EXTT4=
EXTT5=
EXTT6=
EXTT7=
EXTT8=
EXTT9=
EXTT10=
EXTT11=
EXTT12=
EXTT13=
EXTT14=
EXTT15=
EXTT16=
EXTT17=
EXTT18=
EXTT19=
EXTT20=
EXTT21=
EXTT22=
PLAYORDER=
